<svg t="1619164078224" viewBox="0 0 1024 1024" version="1.1" xmlns="http://www.w3.org/2000/svg" p-id="8402" width="200" height="200">
  <path d="M943.353081 1023.225081H80.646919a80.259459 80.259459 0 0 1-79.872-80.148757V175.961946c0-44.115027 35.923027-80.314811 79.872-80.314811h49.428757v-14.668108c0-44.170378 35.978378-80.259459 79.927351-80.259459h1.21773a80.259459 80.259459 0 0 1 79.872 80.259459v14.668108h441.759135v-14.668108c0-44.170378 35.923027-80.259459 79.872-80.259459h1.21773a80.259459 80.259459 0 0 1 79.872 80.259459v14.668108h49.539459c43.948973 0 79.872 36.199784 79.872 80.314811v767.114378a80.259459 80.259459 0 0 1-79.872 80.148757zM259.099676 80.979027a48.044973 48.044973 0 0 0-47.878919-48.100324h-1.21773a48.044973 48.044973 0 0 0-47.93427 48.100324v142.751135c0 26.457946 21.476324 48.155676 47.93427 48.155676h1.21773a48.155676 48.155676 0 0 0 47.878919-48.155676V80.979027z m602.720865 0a47.989622 47.989622 0 0 0-47.878919-48.100324h-1.21773a48.044973 48.044973 0 0 0-47.93427 48.100324v142.751135c0 26.457946 21.476324 48.155676 47.93427 48.155676h1.21773a48.155676 48.155676 0 0 0 47.878919-48.155676V80.979027z m97.529081 298.011676H64.650378v564.085621c0 8.579459 7.306378 16.051892 15.996541 16.051892h862.706162a16.328649 16.328649 0 0 0 15.996541-16.051892V378.990703z m-263.693838 406.223567h143.858162v74.890379h-143.858162v-74.890379z m0-143.968865h143.858162v71.403244h-143.858162v-71.403244z m0-147.345297h143.858162v72.565622h-143.858162V493.900108z m-256.221406 291.314162h146.238271v74.890379H439.434378v-74.890379z m0-143.968865h146.238271v71.403244H439.434378v-71.403244z m0-147.345297h146.238271v72.565622H439.434378V493.900108zM182.105946 785.21427h147.400649v74.890379H182.105946v-74.890379z m0-143.968865h147.400649v71.403244H182.105946v-71.403244z m0-147.345297h147.400649v72.565622H182.105946V493.900108z" p-id="8403"></path>
</svg>